<svg xmlns="http://www.w3.org/2000/svg" viewBox="0 0 3 910" preserveAspectRatio="none"><linearGradient id="f" x1="0" y1="0" x2="0" y2="1"><stop offset="0" stop-color="#fff" stop-opacity="0"/><stop offset="0.12" stop-color="#fff" stop-opacity="1"/><stop offset="0.88" stop-color="#fff" stop-opacity="1"/><stop offset="1" stop-color="#fff" stop-opacity="0"/></linearGradient><path d="M1.82,0.5L1.81,3.7L1.81,7.17L1.8,10.23L1.78,15.98C1.77,15.94 1.76,16.91 1.76,15.71L1.75,14.91L1.73,12.24L1.73,13.31L1.7,10.91L1.68,9.04L1.68,5.84L1.67,3.7L1.67,2.37L1.65,3.04L1.65,4.77L1.63,3.7L1.63,2.9L1.62,1.84L1.6,5.04L1.59,9.57L1.58,7.71L1.55,8.24C1.53,8.93 1.54,7.71 1.52,7.97L1.52,10.91L1.51,11.98L1.51,14.78C1.51,15.24 1.48,14.66 1.48,14.65L1.48,12.78L1.47,9.57L1.46,10.91L1.44,11.44L1.46,11.98L1.45,13.44L1.44,14.64L1.43,15.71L1.43,17.58L1.43,13.58L1.41,9.84L1.42,9.71C1.42,9.06 1.4,9.08 1.4,9.84L1.39,11.18L1.38,13.04L1.36,12.24L1.35,10.91L1.36,9.44L1.34,7.71L1.34,9.57L1.31,10.91L1.29,13.58L1.27,12.51L1.25,11.98L1.25,9.84L1.23,10.64L1.22,12.51L1.23,14.38L1.24,13.84C1.26,13.84 1.27,14.16 1.28,13.84L1.27,15.18L1.24,14.91L1.2,17.05L1.19,16.38L1.16,15.98L1.16,16.51L1.17,17.05L1.14,17.58L1.12,21.58L1.09,20.25C1.09,20.38 1.13,20.28 1.12,20.25L1.11,19.72L1.1,19.98L1.1,18.38L1.11,16.51L1.12,14.91L1.11,13.84L1.12,13.58L1.1,14.11L1.09,15.71L1.09,14.11L1.09,11.18L1.08,11.71L1.07,12.51L1.06,11.44L1.08,9.31L1.09,7.17L1.09,3.17L1.07,4.24L1.07,6.1L1.05,7.04L1.05,7.71L1.03,8.24L1.03,6.37L1.01,7.17C1,7.42 0.97,8.09 0.97,7.17L1,5.57L0.99,4.51L0.99,3.17L0.97,4.77L0.96,5.3L0.94,7.44L0.92,9.57C0.9,9.1 0.9,9.61 0.89,9.57L0.89,10.64L0.87,10.91L0.9,12.78L0.9,13.04L0.88,13.58L0.88,14.64L0.87,14.91L0.88,15.84L0.87,17.31L0.86,22.11L0.86,23.85L0.85,25.32L0.86,26.92L0.84,28.25L0.85,28.92L0.84,29.45L0.84,35.19L0.82,35.99L0.81,35.19L0.81,38.13L0.81,39.46L0.81,40.53L0.79,40.66L0.78,41.07L0.78,42.4L0.75,42.67L0.74,42.12L0.76,40.8L0.73,41.6L0.72,42.67L0.74,44.27L0.74,45.33L0.75,46.94L0.75,46.4L0.75,49.87L0.74,49.61L0.72,50.14C0.71,50.25 0.72,49.57 0.71,50.14L0.73,51.2L0.74,53.07L0.74,54.14L0.75,54.94L0.75,55.21L0.72,54.68L0.69,54.41L0.67,54.94L0.71,55.75L0.74,56.28L0.71,56.01L0.73,57.08L0.71,57.88L0.72,58.94L0.73,58.68L0.73,60.81L0.71,62.41L0.69,61.35L0.7,60.55L0.68,61.22L0.68,62.15L0.68,64.02L0.66,63.62L0.65,62.41L0.63,63.22L0.6,62.41L0.54,63.75L0.55,61.61L0.51,60.28L0.52,61.08L0.5,61.21L0.48,61.61L0.48,64.28L0.44,65.35L0.43,67.22L0.42,68.02L0.41,66.95L0.4,68.68L0.43,69.62L0.46,68.82L0.46,68.55L0.44,67.75L0.46,66.95L0.47,66.15C0.48,66.15 0.49,66.55 0.51,66.15L0.52,66.95L0.51,68.82L0.49,67.22L0.47,68.82L0.48,69.09L0.48,70.69L0.48,71.48L0.47,74.16L0.45,77.63L0.44,79.76L0.42,79.23L0.43,76.29L0.39,74.16L0.37,74.96L0.36,77.09L0.37,78.43L0.4,77.36L0.4,76.28L0.41,76.56L0.4,77.61L0.41,77.89L0.39,78.96L0.4,80.29L0.36,80.03L0.36,81.36L0.36,82.3L0.38,82.43L0.36,83.76L0.35,85.23L0.34,86.04L0.35,87.24L0.39,88.57L0.39,88.03L0.4,87.5L0.36,87.24L0.4,86.7L0.42,86.43L0.42,87.5L0.48,88.57L0.53,86.97L0.53,87.5L0.54,87.23L0.55,87.77L0.56,86.97L0.52,86.7L0.56,86.43L0.59,86.83L0.61,87.5L0.55,89.1L0.54,89.9L0.51,89.63L0.48,88.57L0.44,89.9L0.43,90.71L0.47,90.97L0.44,91.5L0.44,92.04L0.41,92.57L0.36,91.24L0.36,92.3L0.35,91.1L0.33,89.63L0.33,92.3L0.32,93.1L0.29,92.3L0.29,93.64L0.31,93.91L0.31,95.77L0.32,96.44L0.31,97.11L0.3,96.98L0.29,95.24L0.25,97.64L0.23,96.58L0.21,94.71L0.23,91.51L0.22,91.24L0.2,91.77L0.2,96.04L0.2,97.64L0.22,97.11L0.22,99.24L0.23,100.72L0.27,101.11L0.25,101.91L0.28,102.71L0.34,103.24L0.32,102.32L0.33,100.31L0.4,101.38L0.39,98.98L0.41,99.51L0.42,100.04L0.42,102.45L0.42,103.92L0.4,104.85L0.39,102.98L0.38,101.91L0.37,102.98L0.36,105.38L0.39,106.31L0.42,106.71L0.4,107.91L0.42,108.85L0.39,110.18L0.38,107.52L0.36,110.45L0.36,114.59L0.36,115.52L0.4,115.79L0.4,117.26L0.38,117.92L0.39,118.19L0.37,119.52L0.35,120.46L0.36,120.59L0.36,121.26L0.35,121.12L0.34,120.33L0.31,119.52L0.29,120.33L0.27,119.79L0.25,118.72L0.25,120.06L0.21,120.86L0.22,122.73L0.25,125.66L0.26,124.33L0.29,125.66L0.29,127.53L0.26,127L0.25,127.8L0.23,128.06L0.21,128.86L0.19,127.67L0.2,127L0.18,125.13L0.18,123.8L0.17,125.66L0.17,127.53L0.17,129.67L0.17,130.47L0.19,130.2L0.21,129.13L0.25,130.47L0.26,129.13L0.27,131L0.25,131.8L0.21,132.33L0.23,133.13L0.25,132.07L0.28,133.67L0.26,134.2L0.22,134.47L0.22,135.8L0.21,136.6L0.23,136.87L0.24,136.34L0.25,137.67L0.2,138.74L0.19,139.81L0.17,138.74C0.17,138.62 0.14,138.74 0.13,138.74L0.13,141.14C0.13,142.39 0.15,141.2 0.17,141.67L0.17,142.21L0.19,140.87L0.21,140.61L0.24,140.87L0.23,141.94L0.21,141.41L0.18,142.21L0.17,142.74L0.17,143.54L0.16,143.67L0.14,142.21L0.13,144.34L0.14,144.88L0.13,145.94L0.14,147.15L0.13,149.28L0.15,150.22L0.17,149.7L0.2,149.94L0.22,149.68L0.22,149.15L0.17,148.35L0.14,147.81L0.17,148.35L0.21,147.55L0.23,150.48L0.24,150.89L0.25,151.01L0.25,152.08L0.22,151.82L0.2,152.35L0.21,153.15L0.23,153.68L0.2,154.61L0.18,153.68C0.17,155.15 0.14,153.36 0.13,153.68L0.12,155.55L0.15,156.35L0.15,156.62C0.15,156.62 0.11,157.16 0.11,156.75L0.08,156.08L0.08,151.28L0.07,151.82L0.06,151.01L0.03,152.48L0.03,153.15L0.03,153.42L0.01,154.22L0.02,155.02L0.02,156.35L0.03,157.15L0.02,157.69L0.06,158.22C0.07,158.57 0.09,158.41 0.1,158.22C0.1,158.29 0.12,157.44 0.12,158.09L0.13,159.29L0.15,159.95L0.16,159.07C0.16,159.33 0.22,159.82 0.21,159.29L0.18,159.03L0.16,158.49C0.16,157.16 0.21,157.85 0.23,158.22L0.27,159.55L0.29,161.16L0.26,160.49L0.25,160.36L0.25,161.43L0.26,162.22L0.28,164.09L0.26,163.29L0.18,162.9L0.17,162.49L0.17,161.43L0.13,160.89L0.13,161.96L0.12,164.36L0.13,166.23L0.12,167.43L0.12,168.09L0.13,168.5L0.16,167.83L0.14,165.69C0.14,164.79 0.18,165.34 0.19,165.69L0.19,167.16L0.21,167.56L0.23,166.76L0.22,165.55L0.2,165.43L0.18,164.09L0.17,163.56L0.19,163.42L0.24,165.16C0.25,165.16 0.28,164.27 0.28,165.43L0.25,166.49L0.26,167.56L0.24,168.09L0.25,168.89L0.25,169.56L0.23,171.3L0.21,171.16L0.19,171.56L0.17,169.97L0.16,170.76L0.13,171.17L0.11,172.63L0.09,171.03L0.07,170.23L0.07,171.3L0.06,172.63L0.06,172.9L0.09,173.17L0.11,172.89L0.13,173.7L0.15,172.36L0.16,173.17L0.17,172.36L0.18,171.83L0.21,171.97L0.23,172.36L0.23,173.7L0.27,174.5L0.25,175.44L0.28,176.1L0.25,176.77L0.24,177.7L0.25,178.77L0.25,180.9L0.23,181.44L0.23,181.71L0.19,181.44L0.19,182.51L0.27,183.84L0.27,185.18C0.27,186.85 0.25,186.22 0.25,184.91L0.24,184.37L0.23,186.11L0.23,186.77L0.24,188.64L0.22,187.84L0.2,188.64C0.21,189.42 0.23,188.91 0.25,188.91L0.28,191.05L0.28,191.58L0.31,192.65L0.28,193.98L0.23,192.91L0.26,191.05L0.24,190.64L0.25,189.71L0.21,190.25L0.2,190.92L0.21,191.85L0.2,193.45L0.21,198.25L0.19,201.19L0.2,201.99L0.21,202.26L0.22,201.72L0.25,202.25L0.25,204.12L0.29,204.39C0.3,204.47 0.35,202.77 0.35,204.39L0.36,205.46L0.33,204.92C0.34,204.39 0.3,204.92 0.3,204.92L0.29,205.46L0.26,207.59L0.27,208.92C0.27,209.73 0.29,209.73 0.29,208.92L0.29,207.33L0.3,205.99L0.35,207.86C0.38,209.28 0.33,210.58 0.32,208.66L0.32,210.53L0.35,211.59C0.38,212.58 0.32,212.36 0.32,211.99L0.3,212.4L0.31,214.53C0.32,214.53 0.35,213.87 0.34,214.67L0.35,215.06L0.34,215.86L0.32,215.06L0.29,216.66L0.31,217.46L0.3,218.27L0.29,218.41L0.28,217.46L0.27,219.6L0.26,220.93L0.26,223.07L0.26,224.14L0.27,224.4L0.25,226.27L0.27,228.14L0.25,230.01L0.23,227.07L0.22,225.47L0.21,226.8L0.21,229.74L0.2,229.07C0.2,228.9 0.17,228.08 0.17,229.21C0.17,229.59 0.17,229.51 0.16,229.21L0.14,226.54L0.13,229.48L0.13,230.27L0.15,231.21L0.18,231.74L0.16,232.41L0.19,234.54L0.21,232.81L0.24,233.48L0.23,236.15C0.23,237.69 0.19,235.73 0.19,236.68L0.2,237.75L0.22,239.08L0.2,238.55L0.18,240.41L0.16,240.15L0.16,238.81L0.15,236.68L0.14,239.08L0.14,241.48L0.15,240.95L0.19,241.22L0.21,241.76L0.17,242.55C0.16,242.55 0.14,240.72 0.14,242.29L0.15,243.35L0.14,246.96L0.15,248.15L0.14,249.49L0.15,254.83L0.13,256.69L0.13,257.76L0.13,258.83L0.13,260.96L0.12,264.44L0.1,267.37L0.1,266.3L0.09,263.63L0.09,262.83L0.08,261.77L0.07,263.63L0.08,266.04L0.08,269.24L0.08,270.84L0.1,271.11L0.11,271.64L0.1,272.72C0.09,272.73 0.08,271.8 0.08,272.98L0.07,274.17L0.06,275.91L0.06,279.65L0.08,282.32L0.09,282.05L0.1,284L0.09,284.98L0.06,285.78C0.06,285.93 0.08,285.65 0.08,285.78L0.09,286.32L0.09,287.92L0.07,289.11L0.06,290.99L0.07,291.92L0.08,293.26L0.07,296.46L0.08,299.12L0.06,300.73L0.08,305.8L0.07,307.67L0.07,308.73L0.07,310.07L0.06,312.2L0.04,312.47L0.02,314.61L0.04,315.94L0.06,316.48L0.05,318.34L0.02,321.81L0.07,323.54L0.03,324.75L0.03,326.08L0.02,327.95C0.05,327.38 0.06,327.46 0.07,328.48L0.05,330.08L0.04,332.23L0.02,332.89L0.05,333.55L0.1,335.03L0.11,335.96L0.12,336.76L0.13,339.42L0.11,339.69L0.1,340.49L0.12,341.56L0.09,342.36L0.08,340.76L0.06,342.1L0.07,342.9L0.03,343.43L0.06,345.56L0.06,350.1L0.05,351.7L0.06,353.04L0.05,355.17L0.04,356.24L0.03,357.84L0.04,359.17L0.04,361.31C0.05,361.3 0.06,362.76 0.06,361.31C0.06,360.61 0.08,361.31 0.09,361.31L0.1,361.59L0.11,361.3L0.12,356.77L0.14,358.11L0.16,358.78L0.17,359.44L0.17,359.98L0.15,362.11L0.14,363.18C0.14,363.72 0.12,363.18 0.11,363.18L0.06,362.78C0.07,362.19 0.04,362.64 0.04,362.64L0.05,364.25L0.02,365.04L0.01,366.11L0,366.51L0,367.44L0.02,368.25L0.06,369.58L0.06,370.11L0.07,371.18L0.04,371.58L0.03,371.71L0.02,372.52L0.06,373.32L0.09,373.85L0.1,373.05L0.13,372.79L0.17,374.12L0.17,374.65L0.17,375.05L0.15,375.45L0.15,377.86L0.08,378.92L0.03,378.39L0.04,382.12C0.05,382 0.05,379.61 0.08,381.05L0.11,378.92L0.13,381.32L0.1,381.86L0.09,383.46L0.11,382.92C0.12,382.71 0.13,382.71 0.15,382.92L0.19,383.46L0.21,384.53L0.21,384.93L0.17,385.59L0.17,386.39L0.17,387.2L0.2,387.32L0.2,388.53L0.16,389.06L0.16,389.33L0.2,390.13L0.2,391.46L0.2,392.8L0.18,393.6L0.17,392.53L0.16,391.2L0.16,392.26L0.15,392.8L0.11,394.13L0.1,393.07L0.1,391.73L0.11,390.13L0.13,389.33L0.11,388.53L0.11,387.73L0.13,387.46L0.08,386.66L0.03,388.26L0.04,390.13L0.08,393.6L0.07,394.01L0.06,394.13L0.07,395.2L0.08,396L0.1,395.74L0.13,395.2L0.13,398.4C0.12,399.7 0.08,396 0.08,399.47L0.08,402.14L0.09,402.81L0.12,403.08L0.13,403.47L0.14,404.81L0.16,406.68C0.17,406.64 0.18,405.89 0.2,406.41L0.19,407.35C0.19,407.57 0.16,407.59 0.16,407.34L0.13,407.74L0.13,409.61L0.13,410.41L0.14,411.21L0.17,409.74L0.19,410.41L0.22,411.74L0.21,412.82L0.18,412.01L0.2,413.62L0.22,413.75L0.24,413.88L0.24,415.48L0.18,416.28L0.21,416.55L0.25,419.75L0.24,420.29L0.24,421.62L0.23,422.7L0.21,422.56L0.21,424.29L0.21,426.69L0.22,429.36L0.21,430.3L0.18,429.63L0.17,428.82L0.16,426.69L0.15,422.69L0.15,421.09L0.17,419.49L0.16,416.55L0.17,415.48L0.17,413.08L0.16,411.48L0.14,412.81L0.12,413.35L0.11,410.68L0.1,409.61L0.09,412.55L0.09,413.88L0.06,413.62L0.06,414.68L0.1,415.75L0.13,416.02L0.15,416.55L0.12,417.62L0.12,419.49L0.1,420.82L0.1,422.42L0.11,424.29L0.1,426.42L0.12,428.03L0.11,432.56L0.11,435.77L0.12,437.1L0.1,437.63L0.11,438.84L0.14,439.5L0.19,437.1L0.21,436.3L0.21,438.7L0.21,442.97L0.21,445.11L0.24,445.91L0.21,446.71L0.21,448.04L0.21,449.64L0.2,450.04C0.2,450.6 0.16,449.92 0.16,449.9L0.13,449.37L0.12,452.58L0.11,454.72L0.09,455.78L0.1,458.72L0.1,460.98L0.1,463.79L0.13,461.38L0.16,462.45L0.15,464.85L0.16,466.19L0.15,466.99L0.16,468.32L0.2,470.19L0.19,473.12L0.19,476.6L0.19,479.53L0.2,481.67L0.2,483.27L0.21,486.47L0.21,492.07L0.22,494.21L0.22,500.35L0.21,502.48L0.21,505.68L0.2,508.35L0.21,511.82L0.21,514.76L0.21,515.56L0.21,516.22L0.21,519.29L0.21,522.23L0.2,525.29L0.19,528.37L0.18,531.57L0.2,533.44L0.21,540.38C0.18,540.38 0.2,540.66 0.18,540.38L0.16,542.25L0.14,543.31L0.14,543.58L0.14,544.37L0.13,546.66L0.13,547.85L0.13,548.65L0.13,549.99L0.17,549.72L0.17,552.12L0.14,551.85L0.13,552.92L0.13,555.46L0.17,556.92L0.13,560.4L0.12,563.59L0.1,562.79L0.07,561.99L0.08,560.12L0.06,558.79L0.06,564.66L0.07,564.13L0.1,566.53C0.12,566.48 0.13,566.16 0.14,566.53L0.11,567.34L0.11,568.66C0.13,569.88 0.17,568.45 0.17,567.87L0.18,566.8L0.2,568.4L0.22,568.93L0.21,569.47L0.2,570.53L0.19,572.4L0.22,573.74L0.23,574.93L0.24,575.74L0.25,577.74L0.25,578.54L0.22,577.61L0.22,577.21L0.22,575.6L0.21,577.48L0.18,578.14C0.19,579.81 0.15,577.71 0.14,577.73L0.1,578.01L0.1,578.81L0.08,579.07L0.07,576.67L0.05,573.74L0.05,576.67L0.04,582.28L0.04,585.21L0.04,588.68L0.05,590.28L0.06,590.01L0.04,591.08L0.04,593.75L0.03,595.76L0.03,597.88L0.04,600.42L0.04,601.76L0.03,603.89L0.02,604.96L0.03,605.1L0.04,605.49L0.06,606.83L0.12,607.9L0.22,608.69L0.26,606.56L0.27,610.03L0.26,611.9L0.27,614.44L0.26,615.1L0.27,615.63L0.27,616.98L0.26,619.5C0.26,620.23 0.24,619.89 0.23,619.64L0.22,618.04L0.17,617.77L0.19,619.11L0.21,620.97L0.18,620.57L0.16,620.84L0.11,622.04L0.13,624.71L0.15,625.78L0.13,626.84L0.14,628.45L0.14,630.18L0.18,630.58L0.19,629.78L0.22,630.05L0.25,628.31L0.28,628.85L0.27,630.31L0.28,632.45L0.26,637.25L0.26,636.45L0.25,635.92L0.23,634.32L0.23,633.78L0.19,634.18L0.17,634.85L0.16,634.32L0.15,636.18L0.15,636.98L0.14,638.72L0.18,639.39L0.22,640.19L0.24,639.79L0.26,638.85L0.26,640.72C0.23,640.72 0.19,641.82 0.17,641.26L0.17,642.59L0.21,643.39L0.21,644.46L0.19,644.59L0.14,644.19L0.09,642.98L0.08,644.72L0.13,645.79L0.15,646.59L0.17,647.66L0.19,647.52L0.21,647.93L0.18,649.8L0.18,649.26L0.14,651.13C0.13,651.13 0.11,649.75 0.11,651.39C0.11,653.15 0.15,651.71 0.16,651.93L0.23,653.27L0.23,653.53C0.22,653.78 0.2,653.94 0.19,653.53L0.17,655.13L0.17,657.8L0.17,659.13L0.17,661L0.19,662.87L0.17,666.34L0.19,668.74L0.2,671.41L0.2,674.08L0.21,677.82L0.21,679.95L0.21,683.15L0.23,685.82L0.21,686.62L0.2,687.69L0.21,689.29L0.21,691.16L0.21,693.3C0.21,693.71 0.19,693.5 0.18,693.3L0.17,693.42L0.16,694.36L0.16,693.83L0.18,695.84L0.19,698.36C0.19,699.4 0.17,698.63 0.16,698.63L0.16,705.57L0.17,706.37L0.19,707.17L0.17,707.44L0.16,708.24L0.17,711.05L0.16,711.97L0.12,712.77L0.12,713.84L0.14,714.11L0.16,714.64L0.16,716.51L0.17,718.12L0.14,718.38L0.13,720.78L0.14,725.85L0.14,727.19L0.1,728.52L0.11,729.05L0.11,729.86L0.13,730.12L0.15,731.72L0.15,731.99L0.13,733.59L0.12,734.39L0.13,735.07L0.15,735.46L0.16,736.79L0.13,737.59L0.13,742.4L0.17,744.27L0.15,746.93L0.14,749.87L0.16,752.01L0.17,755.88L0.16,756.28L0.16,759.48L0.17,760.69L0.17,761.61L0.18,763.22L0.17,765.88L0.17,768.02L0.18,769.89L0.16,770.16L0.17,772.02L0.16,774.42L0.15,778.43L0.17,780.97L0.17,781.89L0.17,784.03L0.17,786.3L0.16,787.77L0.17,789.63L0.19,791.24L0.21,790.44L0.23,790.97L0.23,792.31L0.25,795.24L0.25,798.44L0.27,802.44L0.27,804.58L0.28,808.85L0.29,810.33L0.31,813.65L0.31,818.46L0.33,820.98L0.32,822.99L0.32,825.4L0.32,827L0.31,829.67L0.31,830.47L0.32,832.2L0.32,833.67L0.32,836.6L0.32,837.41L0.32,838.61L0.34,839.67L0.35,841.14L0.34,841.67L0.32,842.21L0.32,846.75L0.34,847.55L0.34,851.01L0.34,852.88L0.31,853.95L0.36,856.35L0.36,858.49L0.35,859.29L0.34,859.82L0.36,862.76L0.36,865.96L0.37,868.89L0.36,871.56L0.38,873.43L0.41,874.5L0.44,875.57L0.42,876.1L0.4,875.84L0.38,876.1L0.38,879.3L0.41,883.31L0.4,885.44L0.42,887.04L0.41,889.45L0.41,891.04L0.45,893.18L0.44,895.58L0.46,899.85L0.47,900.92L0.48,903.85L0.52,907.32L0.53,908.93L0.55,910L0.57,908.12L0.59,908.39L0.6,908.12L0.59,905.46L0.59,904.39L0.58,903.32L0.56,901.72L0.54,899.58L0.5,896.65L0.52,893.18L0.49,890.25L0.5,885.97L0.51,887.31L0.52,889.45L0.51,890.25L0.51,891.45L0.53,894.25L0.57,895.18L0.56,896.92L0.56,899.32L0.57,900.65L0.59,902.52L0.63,906.26L0.64,904.12L0.63,903.59L0.63,901.72L0.65,904.39L0.67,907.32L0.64,906.52L0.65,907.86L0.67,908.66L0.67,908.12L0.7,908.66L0.72,906.79L0.78,907.73L0.8,909.19L0.82,909.47L0.82,908.92L0.83,908.39L0.86,909.19L0.87,909.46L0.82,906.79L0.8,905.99L0.83,904.12L0.82,901.98C0.82,901.96 0.78,900.39 0.78,901.72L0.78,903.32L0.77,900.65L0.79,899.85L0.79,897.45L0.84,899.58L0.86,903.59L0.86,904.12L0.87,904.92L0.9,907.32L0.9,908.12L0.91,908.66L0.95,907.72L0.97,907.59L0.97,906.79C0.98,906.79 1.03,906.89 1.03,906.66L1.03,905.99L1.03,904.39L1.01,903.05L0.99,901.31L0.97,899.58L1,897.72L1.01,897.99L1.01,894.91L0.99,894.51L0.98,896.12L0.96,893.58L0.97,889.98L0.97,892.38C0.97,892.62 1.01,892.76 1.01,892.25L1.03,892.92L1.04,894.39L1.09,900.39L1.11,900.79L1.12,900.39L1.11,898.52L1.1,893.59L1.09,891.58L1.11,892.25L1.13,891.85L1.13,891.04L1.18,892.11L1.21,891.85L1.23,891.58C1.25,891.58 1.28,891.93 1.28,891.04L1.31,890.51L1.31,889.85L1.33,889.98L1.33,890.92L1.39,891.58L1.4,891.99C1.4,892.44 1.43,891.85 1.43,891.85L1.47,891.31C1.48,890.47 1.49,891.65 1.5,891.58L1.5,896.12L1.5,895.58L1.44,891.85L1.41,892.78L1.38,894.25L1.39,896.79L1.43,897.18L1.44,896.12L1.47,900.39L1.49,900.92L1.51,900.39L1.51,899.58L1.51,898.79L1.53,898.92L1.54,901.45L1.56,904.53L1.57,905.73L1.58,906.26L1.63,907.06L1.64,908.12L1.66,907.59L1.68,907.06L1.67,906.79L1.66,905.46L1.64,904.92L1.58,903.85L1.62,901.45L1.61,900.39L1.6,898.52L1.58,896.65L1.57,893.98L1.58,892.78L1.66,891.85L1.69,893.44L1.71,890.78C1.72,890.5 1.74,889.92 1.74,890.64L1.77,891.85L1.79,893.44L1.81,892.65L1.82,892.11L1.84,891.85L1.87,892.92L1.88,895.32L1.88,896.66L1.9,896.92L1.9,893.18L1.92,892.11L1.94,891.58L1.94,890.52L1.96,890.12L1.98,888.91L1.99,889.71L2,884.1L2.01,881.3L2.02,879.7L2.01,878.23L2.04,878.77L2.04,882.91L2.03,885.17L2.02,886.78L2.05,889.18L2.05,889.71L2.06,887.85L2.06,885.71L2.07,883.31L2.08,881.17L2.09,882.78L2.09,885.17L2.09,885.57L2.08,888.38L2.1,889.71L2.11,890.78L2.17,891.31L2.2,887.58L2.22,885.44L2.23,882.78L2.24,879.7L2.26,876.9L2.28,875.84L2.27,872.9L2.27,869.16L2.25,867.83L2.27,866.76L2.26,865.43L2.27,864.76L2.27,864.09L2.3,860.62L2.3,861.69L2.31,862.08L2.33,864.62L2.32,866.49L2.31,868.63L2.3,875.12L2.29,878.5L2.28,880.64L2.28,882.24L2.27,884.91L2.26,887.85L2.26,890.25L2.29,889.98L2.35,889.18L2.36,887.31L2.38,885.44L2.41,884.64L2.42,881.44L2.42,878.5L2.42,876.1L2.43,874.64L2.45,874.23L2.45,873.03L2.42,870.5L2.45,869.7L2.44,868.63L2.42,867.3L2.44,867.44L2.46,867.03L2.46,865.56L2.44,864.36L2.43,863.83L2.42,862.76L2.42,862.49L2.46,859.55L2.42,859.29L2.4,858.22L2.4,857.55L2.43,857.15L2.44,854.75L2.45,851.82L2.49,851.42L2.5,850.21L2.49,848.35L2.49,846.48L2.46,845.41L2.46,842.74L2.44,842.21L2.42,840.2L2.41,839.27L2.42,838.74L2.42,837.14L2.42,837.67L2.44,840.07L2.44,840.34L2.47,841.94L2.49,843.28L2.5,843.01L2.5,841.68L2.5,840.07L2.5,838.21L2.53,837.41L2.52,833.67L2.55,832.06L2.57,832.6L2.57,833.93L2.6,838.21L2.59,838.74L2.6,839.13L2.61,840.61L2.61,843.81L2.6,845.95L2.59,847.28L2.59,849.41L2.61,850.21L2.65,849.55L2.65,848.35L2.68,848.75L2.69,847.28L2.68,846.21L2.7,840.35L2.69,837.41L2.69,835.54L2.7,831.53L2.7,829.93L2.7,828.07L2.71,825.4L2.71,823.8L2.71,820.33L2.72,818.46L2.72,816.06L2.73,814.45L2.72,813.92L2.73,813.39L2.75,812.59L2.72,812.05L2.73,811.38L2.76,810.72L2.78,810.18C2.78,810.2 2.81,813.03 2.8,810.58L2.83,809.65L2.84,810.72L2.86,809.12L2.87,808.04L2.91,808.32L2.89,807.25L2.87,806.98L2.88,806.45L2.88,805.11L2.91,805.65L2.91,804.58L2.91,803.52C2.88,803.52 2.9,803.22 2.88,803.52L2.85,800.85L2.81,800.04L2.8,801.11L2.78,800.05L2.79,799.65L2.8,799.24L2.84,798.05L2.86,797.11L2.87,795.51L2.85,786.7L2.86,777.09L2.86,772.95L2.88,771.63L2.9,770.96L2.9,770.42L2.92,770.16L2.91,768.29L2.93,767.49L2.92,764.28L2.9,762.95L2.91,761.35L2.88,759.74L2.87,761.08L2.85,762.41L2.83,763.08L2.79,764.82L2.79,765.08L2.82,765.62C2.82,767.27 2.78,765.36 2.78,765.35L2.74,763.48L2.74,763.22L2.81,760.82L2.84,759.35L2.83,757.08L2.8,755.61L2.79,754.67L2.8,753.61L2.87,751.48L2.84,747.47L2.81,747.2L2.79,746.67L2.79,745.87L2.82,743.2L2.8,742.14L2.83,740L2.8,738.13L2.83,735.19L2.84,736L2.88,735.73L2.85,733.59C2.83,733.25 2.84,733.89 2.83,733.59L2.82,733.32L2.81,732.52L2.78,730.52L2.82,728.26L2.84,726.12L2.83,725.45L2.86,724.79L2.89,724.25L2.89,722.92L2.88,723.45L2.85,719.98L2.82,720.64L2.78,720.39L2.78,718.91L2.81,718.65L2.83,717.58C2.84,717.36 2.85,718.69 2.85,717.31L2.83,716.25L2.82,713.84L2.81,709.57L2.8,707.17L2.82,703.17L2.84,701.04L2.85,699.44L2.81,698.63L2.79,695.7L2.8,695.02L2.81,694.9L2.82,693.83L2.79,692.49L2.8,690.62L2.81,689.56L2.8,689.03L2.81,686.89L2.8,685.29L2.79,678.88L2.78,675.15L2.79,673.81L2.8,673.42L2.8,670.08L2.79,666.6L2.77,661.8L2.77,660.2L2.76,656.2L2.78,653.53L2.76,650.33L2.76,646.32L2.76,644.19L2.76,643.66L2.76,642.72L2.76,641.79L2.77,641.26L2.79,639.12L2.79,637.52L2.77,638.05L2.76,636.18L2.75,634.05L2.79,635.12L2.81,632.98L2.84,632.18L2.81,631.11L2.76,631.65C2.76,633.1 2.72,631.95 2.72,631.92L2.73,630.31C2.72,629.81 2.77,630.27 2.77,630.31L2.79,628.98L2.85,630.58L2.88,629.25C2.89,628.14 2.84,629.15 2.84,629.25L2.84,628.45L2.84,626.58L2.83,624.84L2.84,623.38L2.84,621.64L2.81,618.04L2.83,614.83L2.83,608.16L2.85,604.16L2.84,603.36L2.81,603.09L2.8,601.76L2.82,600.69L2.86,599.89L2.9,599.36L2.89,598.82L2.87,599.36L2.84,596.69C2.84,596.69 2.8,597.33 2.8,596.83L2.78,596.42L2.84,594.55L2.84,593.22C2.83,592.64 2.8,593.6 2.79,593.22L2.77,588.42L2.77,586.81L2.79,586.15L2.8,584.41L2.78,584.14L2.78,583.21L2.81,582.01L2.81,581.74L2.79,580.94L2.77,580.68L2.78,579.07L2.77,577.48L2.76,575.47L2.79,575.87L2.8,576.67L2.82,577.21L2.82,575.87L2.8,575.07L2.78,574.8L2.78,573.2L2.79,572.67L2.82,571.6L2.8,570.39L2.81,569.47L2.79,570L2.76,570.53L2.76,567.6L2.76,566.53L2.76,564.66L2.8,563.74L2.77,562.52L2.78,561.45L2.8,562.52L2.82,561.99L2.85,561.19L2.84,559.59L2.84,558.53L2.9,556.92L2.9,552.66L2.84,553.46L2.83,554.25L2.78,554.79C2.78,554.74 2.76,555.69 2.76,554.52L2.76,553.86L2.77,552.93L2.76,551.59L2.78,550.52L2.81,550.79L2.84,549.45L2.82,547.85L2.77,549.99L2.76,547.58L2.8,546.51L2.85,542.78L2.85,541.71L2.84,540.91L2.83,540.38L2.77,539.85L2.77,537.97C2.77,536.06 2.79,537.4 2.82,537.44L2.84,538.24C2.84,539.23 2.85,538.51 2.87,538.51L2.87,537.3L2.85,535.57L2.85,534.77L2.83,532.9L2.8,533.97L2.83,535.04L2.8,536.11C2.79,536.05 2.79,536.56 2.77,536.11L2.76,535.31L2.77,533.71L2.77,532.37L2.76,531.57L2.76,529.97L2.77,529.7L2.75,529.18L2.74,527.03L2.77,526.36L2.79,525.56L2.8,525.17L2.84,526.51L2.86,523.03L2.85,520.36L2.84,519.56L2.82,518.76L2.79,517.69L2.74,517.03L2.72,516.36L2.72,517.69L2.72,519.83L2.71,520.63L2.71,521.16L2.72,521.83L2.74,521.16L2.79,522.23C2.8,522.76 2.75,522.5 2.74,522.5L2.72,523.83L2.69,525.7L2.69,528.37L2.72,529.17L2.73,529.97L2.72,530.9L2.7,532.37L2.69,531.3L2.66,531.57L2.66,531.84L2.69,532.37L2.68,533.17L2.69,534.24L2.73,533.96L2.72,535.04L2.7,535.31L2.67,536.11L2.65,538.24L2.64,536.24L2.65,532.64L2.64,527.83L2.64,521.7L2.65,520.09L2.64,516.36L2.65,513.69L2.64,510.22L2.64,507.29L2.63,503.15L2.62,501.15L2.63,497.95L2.62,495.14L2.61,494.07L2.62,493L2.62,491.81L2.63,490.21L2.62,486.73L2.61,487.81L2.61,485.67L2.63,483.27C2.63,483.15 2.6,484.41 2.6,483.53L2.6,480.86L2.62,480.33L2.61,476.46L2.61,474.99L2.61,469.92L2.62,467.79L2.6,466.45L2.61,464.85L2.59,462.45L2.6,458.72L2.59,456.05L2.59,453.64L2.59,450.71L2.57,448.31L2.56,447.11L2.57,446.31L2.56,445.64L2.55,444.84L2.54,443.77C2.55,443.29 2.57,443.84 2.57,443.77L2.57,442.71L2.55,442.97L2.55,442.17C2.55,440.58 2.52,441.61 2.52,442.44L2.49,441.9L2.47,441.51L2.48,440.03L2.5,437.36L2.5,437.1L2.48,436.57L2.5,435.23L2.48,434.43L2.51,433.36L2.51,431.76L2.47,430.03L2.47,429.09C2.47,428.39 2.51,429.07 2.52,428.82L2.53,427.76L2.49,426.96L2.49,425.09L2.48,424.56L2.48,422.28L2.5,422.03L2.5,421.09L2.46,420.55L2.47,417.89L2.48,416.56L2.46,415.75L2.46,413.88L2.45,412.82L2.46,412.55L2.49,411.75L2.48,409.88L2.49,408.81L2.49,406.68L2.5,404.93L2.49,404.14L2.49,403.21L2.49,400.81L2.48,399.47L2.48,397.34L2.49,394.93L2.49,391.33L2.49,390.4L2.49,389.33L2.48,386.66L2.47,384.53L2.44,383.99L2.43,382.79L2.46,382.13L2.45,380.52L2.46,378.92L2.46,377.32L2.43,375.19L2.46,372.79L2.46,366.91L2.44,361.57L2.42,360.51L2.42,360.1L2.42,359.3L2.44,358.37L2.46,356.24L2.42,353.3L2.45,352.23L2.45,350.23L2.44,348.5L2.46,347.04L2.45,344.5L2.45,342.1L2.44,341.03L2.45,339.83L2.45,338.49L2.46,338.36L2.45,337.69L2.45,336.22L2.46,333.29L2.45,332.49L2.46,331.15L2.44,328.75L2.45,327.68L2.46,326.89L2.45,324.75L2.47,320.48L2.46,317.01L2.46,313.54L2.47,312.21L2.46,310.21L2.47,309L2.48,308.34L2.49,306.6L2.48,305.8L2.49,301.8L2.49,300.46L2.49,297.79L2.5,295.8L2.49,295.13L2.49,293.25L2.47,291.66L2.48,288.72L2.49,287.65L2.47,286.85L2.49,284.45L2.49,282.85L2.49,281.25L2.49,279.65L2.5,277.24L2.49,274.31L2.53,270.84L2.53,268.84L2.53,267.37L2.54,264.44L2.54,263.23L2.53,262.83L2.52,261.77L2.49,260.96C2.49,259.65 2.52,260.8 2.53,260.7L2.53,260.17L2.55,260.43L2.57,258.42L2.57,257.23L2.57,255.63L2.57,254.29L2.56,255.89L2.54,254.56L2.52,253.23L2.53,251.88L2.57,250.42L2.56,250.29L2.54,249.22L2.58,248.42L2.6,246.29L2.58,243.62L2.57,241.48L2.57,239.61L2.6,238.81L2.6,236.15L2.59,234.54L2.61,233.35L2.64,227.61L2.66,221.86L2.66,220.4L2.66,217.2L2.68,215.2L2.68,212.66L2.67,209.73L2.69,208.13L2.69,203.59L2.68,201.86L2.7,200.12L2.7,197.72L2.7,193.18L2.71,191.85L2.69,191.05L2.71,189.98L2.68,189.18L2.65,188.38L2.64,187.31L2.65,186.51L2.66,184.37L2.66,179.04L2.66,174.5L2.67,173.7L2.66,171.83L2.68,168.63L2.67,168.09L2.69,167.56L2.72,166.76C2.71,166.46 2.67,167.21 2.68,166.49L2.69,165.43L2.67,164.5L2.68,163.56L2.7,163.43L2.72,163.02L2.72,161.96C2.72,162.15 2.68,162.7 2.69,162.09L2.67,160.89L2.69,159.82L2.69,158.75L2.73,158.49L2.69,157.69L2.68,153.41L2.68,151.95L2.71,150.48L2.74,149.15L2.75,148.47L2.71,148.08L2.69,146.48L2.7,145.41L2.72,143.28L2.74,137.14L2.75,131.27L2.76,128.6L2.77,125.93L2.78,124.06L2.78,119.79L2.8,117.92C2.8,116.55 2.81,116.55 2.81,117.92L2.82,118.59L2.84,119.79L2.84,118.72L2.84,117.66L2.86,116.59L2.83,114.99L2.82,116.32L2.8,114.45L2.8,113.12L2.81,110.98L2.82,109.39L2.82,108.32C2.82,105.38 2.86,108.41 2.87,107.78L2.86,105.65L2.86,104.58L2.84,105.52L2.8,105.11L2.8,104.85L2.82,103.65L2.84,101.91L2.87,100.04L2.86,99.11L2.84,98.98L2.84,100.04L2.82,97.11L2.83,95.24L2.84,93.37L2.84,89.9L2.84,88.57L2.85,88.03L2.84,87.63L2.84,86.97L2.85,84.03L2.84,82.16L2.84,80.83L2.88,78.56L2.88,77.48L2.87,76.83L2.88,76.29L2.87,76.02L2.88,75.36L2.88,73.62L2.88,70.42L2.87,68.55L2.87,67.88L2.89,67.22L2.88,66.95L2.89,66.42L2.9,65.35L2.9,62.41L2.88,61.35L2.9,60.01C2.92,59.67 2.92,59.88 2.94,60.01L2.95,59.08L2.98,54.14L2.92,56.01L2.91,54.94L2.91,54.68L2.89,53.07L2.91,52.14L2.92,51.47L2.93,49.85L2.92,48.27L2.93,47.6L2.97,46.67C2.96,46.4 2.93,47.79 2.93,46.13L2.93,44.53L2.96,40.8L2.91,40L2.92,38.66L2.94,37.86L2.95,35.99L2.92,35.46L2.91,32.26L2.91,28.79L2.89,28.25L2.9,27.72L2.9,26.66L2.9,24.65L2.88,23.72L2.86,24.79L2.84,25.05L2.83,26.92L2.78,25.45L2.76,24.11C2.77,23.46 2.74,24 2.74,23.99L2.75,26.39L2.76,28.25L2.77,30.12L2.74,29.32L2.72,29.85L2.71,29.59L2.71,31.99L2.69,33.32L2.71,36.53L2.71,41.07L2.7,42.13L2.7,45.07L2.69,48.01L2.69,49.61L2.68,52.27L2.68,56.41L2.67,57.34L2.69,57.88L2.66,58.68L2.66,59.75L2.66,60.55L2.65,62.15L2.65,65.08L2.64,67.22L2.63,70.42L2.62,71.22L2.6,70.15L2.59,68.41L2.56,67.89L2.54,68.29L2.51,67.22L2.54,65.62L2.54,66.15L2.56,65.08L2.53,64.28L2.56,63.75L2.57,63.62L2.6,63.09L2.6,60.81L2.59,58.94L2.58,61.88L2.57,63.22L2.53,62.95L2.54,59.48L2.54,58.68L2.52,58.14L2.54,57.21L2.55,56.28L2.53,56.15L2.5,55.34L2.53,54.41L2.55,53.88L2.56,52.54L2.53,50.95L2.51,49.61L2.5,48.27L2.51,47.6L2.52,48.01L2.54,49.61L2.57,47.74L2.51,46.4L2.53,45.87L2.57,46.67L2.58,44.8L2.55,43.73L2.53,44.53L2.51,43.73L2.5,44L2.48,44.53L2.47,44.94L2.45,45.08L2.43,44.27L2.43,44L2.49,43.2L2.52,40.8L2.49,41.33L2.46,40L2.45,40.26L2.42,39.2L2.42,38.4L2.47,37.86L2.48,36.79L2.48,39.73L2.5,40.8C2.51,38.59 2.54,41.06 2.54,41.07L2.54,42L2.57,43.2L2.59,42.14L2.57,41.07L2.56,38.66L2.54,35.99L2.51,35.73L2.51,35.46L2.53,35.19L2.53,34.93L2.53,33.32L2.53,33.06L2.53,31.19L2.53,31.72L2.51,30.39C2.5,29.99 2.52,30.21 2.53,30.39L2.51,29.45L2.49,28.52L2.49,27.45L2.47,26.66L2.48,27.99L2.42,22.92L2.4,23.98L2.41,25.59L2.42,28.25L2.4,27.45L2.38,26.92L2.38,25.71L2.37,23.98L2.34,23.71L2.3,21.45L2.27,19.18L2.25,19.98L2.24,20.52L2.24,22.65C2.23,22.05 2.21,21.36 2.2,22.38C2.19,24.86 2.19,22.07 2.18,22.12L2.17,21.31L2.16,19.98L2.15,19.18L2.15,19.84L2.15,22.92L2.11,21.58C2.1,21.58 2.08,20.28 2.08,21.58L2.07,22.92L2.07,21.05L2.06,20.25L2.04,19.72L2.04,22.92L2.02,22.38L2.01,20.79L2,19.18L1.99,18.38L1.98,16.51L1.98,13.71L1.97,12.24L1.96,14.91L1.94,14.64L1.94,15.44L1.92,15.71L1.91,17.05L1.88,15.71L1.86,14.38L1.85,8.51L1.85,7.98L1.85,6.64L1.84,3.97L1.83,2.1L1.84,0.5C1.83,0.38 1.82,0 1.82,0.5" fill="url(#f)"/></svg>